# xmcd
#
# Track frame offsets: 
#        150
#        15170
#        34310
#        52737
#        70930
#        89333
#        108341
#        125957
#        144074
#        160165
#        180746
#        196075
#        211975
#        227799
#        243333
#        262139
#        277646
#
# Disc length: 3917 seconds
#
# Revision: 0
# Processed by: cddbd v1.5.2PL0 Copyright (c) Steve Scherf et al.
# Submitted via: ExactAudioCopyFreeDBPlugin 1.0
#
DISCID=e10f4b11
DTITLE=容祖兒 - All Delicious Collection CD1
DYEAR=1900
DGENRE=
TTITLE0=出色 (新歌)
TTITLE1=加大力度
TTITLE2=空港
TTITLE3=13點
TTITLE4=蜉蝣
TTITLE5=澎拜
TTITLE6=Scream!
TTITLE7=暖光
TTITLE8=綠野仙踪
TTITLE9=桃色冒險
TTITLE10=喜喜
TTITLE11=逃
TTITLE12=跑步機上
TTITLE13=我所知的兩三事
TTITLE14=床前無月光
TTITLE15=心花怒放
TTITLE16=Lucky Star
EXTD=
EXTT0=
EXTT1=
EXTT2=
EXTT3=
EXTT4=
EXTT5=
EXTT6=
EXTT7=
EXTT8=
EXTT9=
EXTT10=
EXTT11=
EXTT12=
EXTT13=
EXTT14=
EXTT15=
EXTT16=
PLAYORDER=
